<svg width="40" height="40" viewBox="0 0 40 40" fill="none" xmlns="http://www.w3.org/2000/svg">
<path d="M37.5076 16.5314L34.8593 15.6876L36.9452 19.2969C36.6873 20.0937 36.3358 20.867 35.9375 21.5936L35.2109 22.6483L34.6014 23.5623C34.086 24.1718 33.5468 24.711 32.9376 25.2264L29.4922 23.6328L30.9686 26.5625C29.1171 27.5937 26.9608 28.2031 24.6875 28.2031C23.0234 28.2031 21.4532 27.8986 20 27.3126C15.1953 25.4376 11.7969 20.7736 11.7969 15.3125C11.7969 13.0392 12.4063 10.8829 13.4375 9.03137L16.3907 10.4843L14.7736 7.06238C15.289 6.45294 15.8279 5.914 16.4374 5.39856L19.6719 7.15637L18.4064 4.0625C18.9218 3.78113 19.4376 3.52325 20 3.31238C20.2344 3.21869 20.4688 3.125 20.7031 3.05481L24.3829 5.11719L23.4686 2.49207C23.8672 2.44537 24.2657 2.42188 24.6875 2.42188C31.8124 2.42188 37.5781 8.18756 37.5781 15.3125C37.5781 15.7343 37.5546 16.1328 37.5076 16.5314Z" fill="#979FEF"/>
<path d="M37.5076 16.5314L34.8593 15.6876L36.9452 19.2969C36.6873 20.0937 36.3358 20.867 35.9375 21.5936L35.2109 22.6483L34.6014 23.5623C34.086 24.1718 33.5468 24.711 32.9376 25.2264L29.4922 23.6328L30.9686 26.5625C29.1171 27.5937 26.9608 28.2031 24.6875 28.2031C23.0234 28.2031 21.4532 27.8986 20 27.3126V3.31238C20.2344 3.21869 20.4688 3.125 20.7031 3.05481L24.3829 5.11719L23.4686 2.49207C23.8672 2.44537 24.2657 2.42188 24.6875 2.42188C31.8124 2.42188 37.5781 8.18756 37.5781 15.3125C37.5781 15.7343 37.5546 16.1328 37.5076 16.5314Z" fill="#7984EB"/>
<path d="M13.4357 9.03198L30.9683 26.5646C31.6656 26.1743 32.3248 25.7248 32.9346 25.2167L14.7836 7.06573C14.2752 7.67517 13.8257 8.33435 13.4357 9.03198Z" fill="#6B77E8"/>
<path d="M35.9375 21.5936C35.5392 22.2968 35.0937 22.9532 34.6014 23.5626L20 8.96088L16.4374 5.39856C17.0468 4.90631 17.7032 4.46106 18.4064 4.0625L35.9375 21.5936Z" fill="#7984EB"/>
<path d="M37.5162 16.5402L23.4598 2.48383C22.5104 2.57355 21.5924 2.76794 20.7141 3.05267L36.9473 19.2856C37.2321 18.4076 37.4265 17.4896 37.5162 16.5402Z" fill="#6B77E8"/>
<path d="M8.62457 12.6254L2.42188 6.3446L4.07898 4.6875L10.2817 10.9683L8.62457 12.6254Z" fill="#D3D3D8"/>
<path d="M10.8243 12.074L8.48938 3.82568L10.744 3.18268L13.0786 11.4307L10.8243 12.074Z" fill="#D3D3D8"/>
<path d="M2.42188 7.10938C1.12976 7.10938 0 5.97961 0 4.6875C0 3.39539 1.12976 2.34375 2.42188 2.34375C3.71399 2.34375 4.76562 3.39539 4.76562 4.6875C4.76562 5.97961 3.71399 7.10938 2.42188 7.10938Z" fill="#FF7816"/>
<path d="M9.45312 4.6875C8.16101 4.6875 7.10938 3.63586 7.10938 2.34375C7.10938 1.05164 8.16101 0 9.45312 0C10.7452 0 11.7969 1.05164 11.7969 2.34375C11.7969 3.63586 10.7452 4.6875 9.45312 4.6875Z" fill="#FF7816"/>
<path d="M35.9375 21.5936C35.5392 22.2968 35.0937 22.9532 34.6014 23.5626L20 8.96088V5.65613L35.9375 21.5936Z" fill="#6B77E8"/>
<path d="M23.5157 17.6562C23.5157 20.7736 22.1561 23.5861 20.0001 25.4843C18.1486 27.1954 15.6641 28.2031 12.9688 28.2031C9.80475 28.2031 7.01575 26.7734 5.07025 24.5703L6.61719 23.3514L3.35944 21.9455C2.98438 21.1249 2.75 20.2579 2.58612 19.3436L3.7345 18.2422L2.49243 16.8594C2.56262 16.0391 2.70331 15.2655 2.93738 14.5389L4.6485 13.3203L3.87518 12.3828C5.70319 9.24225 9.07812 7.10938 12.9688 7.10938C13.8828 7.10938 14.7501 7.25006 15.5939 7.48444L16.3672 8.93768L17.7735 8.32825C18.5001 8.703 19.1797 9.14856 19.7892 9.664L20.0001 10.2032L20.586 11.7032L21.4765 11.4688C22.0157 12.1951 22.4375 12.9922 22.7656 13.8358L21.9221 16.5079L23.4452 16.9061C23.4687 17.164 23.5157 17.3984 23.5157 17.6562Z" fill="#FF9AC9"/>
<path d="M23.5156 17.6562C23.5156 20.7736 22.1561 23.5861 20 25.4843V10.2032L20.5859 11.7032L21.4764 11.4688C22.0157 12.1951 22.4374 12.9922 22.7655 13.8358L21.922 16.5079L23.4451 16.9061C23.4686 17.164 23.5156 17.3984 23.5156 17.6562Z" fill="#FF7CB9"/>
<path d="M23.4451 16.9061C22.4374 18.1485 21.2656 19.2734 20 20.2579C16.3907 23.0469 11.9141 24.6875 7.10938 24.6875C6.42975 24.6875 5.74982 24.6405 5.07019 24.5703C4.39056 23.7967 3.78113 22.9297 3.35938 21.9452C4.57794 22.2031 5.84381 22.3438 7.10938 22.3438C12.0312 22.3438 16.6016 20.3751 20 17.1408C21.0312 16.1563 21.9687 15.0311 22.7655 13.8361C23.1406 14.7971 23.3514 15.8279 23.4451 16.9061Z" fill="#FF7CB9"/>
<path d="M21.4764 11.4688C21.0547 12.2421 20.5624 12.9922 20 13.6719C16.9998 17.5156 12.3123 20 7.10938 20C5.56244 20 4.039 19.7656 2.58606 19.3436C2.49237 18.7811 2.42188 18.2422 2.42188 17.6562C2.42188 17.3749 2.49237 17.1173 2.49237 16.8594C3.96881 17.3749 5.51575 17.6562 7.10938 17.6562C12.6407 17.6562 17.4921 14.3985 19.7891 9.664C19.8593 9.7345 19.9295 9.78119 20 9.87488C20.5624 10.3436 21.0312 10.8594 21.4764 11.4688Z" fill="#FF7CB9"/>
<path d="M15.7269 11.5359C16.6134 10.574 17.2634 9.47449 17.7764 8.3197C17.0867 7.96356 16.3619 7.6767 15.5938 7.47864C15.1876 8.36273 14.6856 9.20685 14.0032 9.94629C12.2329 11.8668 9.71979 12.9688 7.10931 12.9688C5.98322 12.9688 4.90137 12.7512 3.88574 12.3807C3.49359 13.0542 3.18353 13.772 2.94702 14.5294C4.25378 15.0241 5.6524 15.3125 7.10931 15.3125C10.3732 15.3125 13.5134 13.9359 15.7269 11.5359Z" fill="#FF7CB9"/>
<path d="M21.4764 11.4688C21.0547 12.2421 20.5624 12.9922 20 13.6719V9.87488C20.5624 10.3436 21.0312 10.8594 21.4764 11.4688Z" fill="#FF5CA8"/>
<path d="M23.4451 16.9061C22.4374 18.1485 21.2656 19.2734 20 20.2579V17.1408C21.0312 16.1563 21.9687 15.0311 22.7655 13.8361C23.1406 14.7971 23.3514 15.8279 23.4451 16.9061Z" fill="#FF5CA8"/>
<path d="M36.6171 30.5469L34.0389 31.9296L36.2185 32.8906L35.8438 35.2344L33.2888 36.4767L35.4452 37.5781L35.0466 40H29.3749L28.2736 37.5781L27.0312 40H12.9687L11.5859 37.5781L10.6249 40H4.95325L4.55469 37.5781L6.73425 36.6171L4.15613 35.2344L3.78137 32.8906L5.89044 31.5781L3.38281 30.5469L2.79688 27.0312H37.203L36.6171 30.5469Z" fill="#FDBF00"/>
<path d="M36.6171 30.5469L34.039 31.9296L36.2186 32.8906L35.8438 35.2344L33.2889 36.4767L35.4453 37.5781L35.0467 40H29.375L28.2736 37.5781L27.0312 40H20V27.0312H37.2031L36.6171 30.5469Z" fill="#FF7816"/>
<path d="M21.1718 32.8906V35.2344H35.8438L35.4452 37.5781H29.3749V40H27.0312V37.5781H12.9687V40H10.6249V37.5781H4.55469L4.15613 35.2344H18.8281V32.8906H3.78137L3.38281 30.5469H10.6249V27.0312H12.9687V30.5469H27.0312V27.0312H29.3749V30.5469H36.6171L36.2185 32.8906H21.1718Z" fill="#FFD400"/>
<path d="M21.1719 32.8906V35.2344H35.8438L35.4453 37.5781H29.375V40H27.0312V37.5781H20V30.5469H27.0312V27.0312H29.375V30.5469H36.6171L36.2186 32.8906H21.1719Z" fill="#FF9F00"/>
<path d="M0 25.8594H40V28.2031H0V25.8594Z" fill="#725D57"/>
<path d="M20 25.8594H40V28.2031H20V25.8594Z" fill="#68544F"/>
</svg>
