<svg width="24" height="18" viewBox="0 0 24 18" fill="none" xmlns="http://www.w3.org/2000/svg">
<path d="M23.9999 0.900209V17.0998C24.0013 17.2076 23.983 17.3147 23.9461 17.4148C23.8358 17.7315 23.5727 17.9553 23.2634 17.9953C23.2332 17.9991 23.2028 18.0006 23.1724 17.9998H0.827689C0.797267 18.0006 0.766846 17.9991 0.736659 17.9953C0.42738 17.9553 0.164226 17.7315 0.0538827 17.4148C0.0169924 17.3147 -0.00128876 17.2076 7.06064e-05 17.0998V0.900209C-0.00128876 0.792396 0.0169924 0.685348 0.0538827 0.585232C0.164179 0.268472 0.427333 0.0447415 0.736659 0.00472593C0.766846 0.000851811 0.797267 -0.00062673 0.827689 0.000239849H23.1724C23.2028 -0.00062673 23.2332 0.000902786 23.2634 0.00472593C23.5727 0.0446905 23.8358 0.268472 23.9461 0.585232C23.983 0.685297 24.0013 0.792396 23.9999 0.900209Z" fill="#285680"/>
<path d="M23.9999 0.900209C24.0013 0.792396 23.983 0.685348 23.9461 0.585232C23.8358 0.268472 23.5727 0.0447415 23.2634 0.00472593C23.2332 0.000851811 23.2028 -0.00062673 23.1724 0.000239849H21.8151L14.4827 5.49909V0.000239849H9.51726V5.49909L2.1849 0.000239849H0.827689C0.797267 -0.00062673 0.766846 0.000902786 0.736659 0.00472593C0.42738 0.0447415 0.164179 0.268472 0.0538827 0.585232C0.0169924 0.685348 -0.00128876 0.792396 7.06064e-05 0.900209V1.63818L6.21518 6.30007H0.000117481V11.6999H6.2111L0.000117481 16.3618V17.0998C-0.00124188 17.2076 0.0170392 17.3147 0.0539296 17.4148C0.164226 17.7315 0.42738 17.9553 0.736705 17.9953C0.766893 17.9991 0.797314 18.0006 0.827736 17.9998H2.18494L9.51726 12.5009V17.9998H14.4827V12.5009L21.8151 17.9998H23.1723C23.2027 18.0006 23.2332 17.9991 23.2633 17.9953C23.5726 17.9553 23.8358 17.7315 23.9461 17.4148C23.983 17.3147 24.0012 17.2076 23.9999 17.0998V16.3618L17.7848 11.6999H23.9999V6.30007H17.7889L23.9999 1.63818V0.900209H23.9999Z" fill="#ECF0F1"/>
<path d="M23.9457 17.4148C23.8354 17.7315 23.5723 17.9552 23.263 17.9953L14.8672 11.6999H16.332L23.9457 17.4148Z" fill="#C03A2B"/>
<path d="M9.13225 6.30004H7.66742L0.0537109 0.585206C0.164007 0.268446 0.427161 0.0447153 0.736487 0.00469971L9.13225 6.30004Z" fill="#C03A2B"/>
<path d="M23.9455 0.585206L16.3235 6.30004H14.8711L23.2627 0.00469971C23.5721 0.0447153 23.8352 0.268446 23.9455 0.585206Z" fill="#C03A2B"/>
<path d="M9.12813 11.6999L0.736487 17.9953C0.427208 17.9552 0.164054 17.7315 0.0537109 17.4148L7.67571 11.6999H9.12813Z" fill="#C03A2B"/>
<path d="M23.9998 8.09998H0V9.89991H23.9998V8.09998Z" fill="#C03A2B"/>
<path d="M12.827 0.000213623H11.1719V17.9997H12.827V0.000213623Z" fill="#C03A2B"/>
</svg>
