<svg id="Layer_1" data-name="Layer 1" xmlns="http://www.w3.org/2000/svg" viewBox="0 0 1024 1024"><defs><style>.cls-1{fill:#638c41;}</style></defs><title>globe</title><path class="cls-1" d="M77.38,427.91a27.27,27.27,0,1,1-27.26-27.36A27.37,27.37,0,0,1,77.38,427.91Z"/><path class="cls-1" d="M1016.28,431.73C972.09,152.86,709.25-37.89,430.55,6.38,295.49,27.72,176.81,100.57,96.44,211.13A512.36,512.36,0,0,0,14.12,387.5h94.8S120.68,412,126.74,424a11.59,11.59,0,0,1,.89,2.54c-.71,1.51-1.42,2.94-2.14,4.45a33.67,33.67,0,0,0-1.6,12.48,9.19,9.19,0,0,1-2,1.92c-9.8,7.93-28.87,22.76-28.87,22.76H1.11c-3.38,40.94-2.67,82.51,4.1,124.06C26.6,727.31,99.3,845.94,210,926.3A516.29,516.29,0,0,0,339.5,994.73a509.52,509.52,0,0,0,251.43,22.81C869.8,973.35,1060.65,710.51,1016.28,431.73ZM866.42,289.31A845.92,845.92,0,0,0,747.74,266a33.58,33.58,0,0,0-20.67-26.86A812.16,812.16,0,0,0,724.39,151,422.49,422.49,0,0,1,866.42,289.31ZM651,116.47a430.74,430.74,0,0,1,56.49,25,853.71,853.71,0,0,1,3.74,95.2,34.83,34.83,0,0,0-6.6,1.38,752.08,752.08,0,0,0-109.4-137.21A424.87,424.87,0,0,1,651,116.47ZM178.06,423.32A815.34,815.34,0,0,1,518.23,286.15a823.72,823.72,0,0,1,163-9.45,33.48,33.48,0,0,0,21.74,25c1.42.49,2.84.85,4.27,1.2C690.89,465,626.39,616.21,526.61,739a41,41,0,0,0-40.81,15.9C354.29,692,243.28,592.24,168.61,467.19a28.64,28.64,0,0,0,13.55-15.95A29.8,29.8,0,0,0,178.06,423.32Zm-60.41-58.94a424.12,424.12,0,0,1,53.46-99C237,174.65,334.33,115,445,97.49A415,415,0,0,1,566.88,96.1,737.32,737.32,0,0,1,683.59,234.7c7.13,11.27-1.43,25.84-14.61,25.53a844.55,844.55,0,0,0-153.42,10.06A831.68,831.68,0,0,0,164.7,413.11a1.73,1.73,0,0,0-.9-.22,29.37,29.37,0,0,0-22.45,1,17.06,17.06,0,0,1-4.81-6C130,393.65,123.71,379.17,117.65,364.38ZM264.12,851.65C173.43,785.71,113.73,688.51,96.27,577.8a423.41,423.41,0,0,1-4.82-84.63c10.7-9.94,21.57-19.74,33-29.05a15.8,15.8,0,0,1,6.58-3.48,29.16,29.16,0,0,0,12.84,8.73,33.87,33.87,0,0,0,8.19,1.75C227.78,599.81,341.11,702.9,475.64,768a17.49,17.49,0,0,1,3.39,2.18,38.48,38.48,0,0,0,1.07,21.12c-.36.13-.36.31-.54.41A824.31,824.31,0,0,1,350.72,900,430.46,430.46,0,0,1,264.12,851.65Zm312.37,74.84a417.44,417.44,0,0,1-207.58-19.43,845.47,845.47,0,0,0,119.2-101.21,40.76,40.76,0,0,0,65-5.39,788,788,0,0,0,190.48,42.19,15.78,15.78,0,0,1,12.83,9.49A420,420,0,0,1,576.49,926.49Zm179.09-99A763.3,763.3,0,0,1,558.86,785.4a40.3,40.3,0,0,0-17.29-40C640.11,623.2,704.26,474,722.26,313.82a2.72,2.72,0,0,1,5.16-1,714.82,714.82,0,0,1,62,198.2A712.89,712.89,0,0,1,771.8,816.36,15.76,15.76,0,0,1,755.58,827.54Zm36.53-4.5A15.55,15.55,0,0,1,790,810.39a726.22,726.22,0,0,0,15.15-301.9,721.87,721.87,0,0,0-62.37-201c-5.7-12,3.92-25.65,17.11-23.78a831.26,831.26,0,0,1,118.67,25.79,414.23,414.23,0,0,1,46.69,136.62C948.21,591.31,893.51,731,792.11,823Z"/></svg>